<svg width="356" height="233" viewBox="0 0 356 233" fill="none" xmlns="http://www.w3.org/2000/svg">
<path d="M221.855 137.448C221.16 137.448 220.517 137.335 219.927 137.109C219.337 136.883 218.764 136.493 218.208 135.938L182.375 100.105C181.82 99.5484 181.429 98.9755 181.203 98.3859C180.977 97.7953 180.864 97.1526 180.864 96.4578C180.864 95.7641 180.977 95.1219 181.203 94.5312C181.429 93.9406 181.82 93.3677 182.375 92.8125L195.656 79.5312C196.211 78.976 196.784 78.5854 197.375 78.3594C197.966 78.1333 198.608 78.0203 199.302 78.0203C199.996 78.0203 200.639 78.1333 201.23 78.3594C201.819 78.5854 202.392 78.976 202.948 79.5312L238.781 115.364C239.336 115.92 239.727 116.493 239.953 117.083C240.179 117.673 240.292 118.316 240.292 119.011C240.292 119.705 240.179 120.347 239.953 120.938C239.727 121.528 239.336 122.101 238.781 122.656L225.5 135.938C224.945 136.493 224.372 136.883 223.781 137.109C223.191 137.335 222.548 137.448 221.855 137.448ZM133.989 137.5C133.295 137.5 132.627 137.379 131.984 137.136C131.342 136.892 130.743 136.493 130.188 135.938L117.062 122.812C116.507 122.257 116.108 121.658 115.864 121.016C115.621 120.373 115.5 119.705 115.5 119.011C115.5 118.316 115.621 117.673 115.864 117.083C116.108 116.493 116.507 115.92 117.062 115.364L151.542 80.8859H164.823L170.552 75.1562L143.73 48.3328H134.823L115.5 29.0109L131.698 12.8125L151.02 32.1359V41.0422L177.844 67.8641L197.427 48.2812L188.208 39.0625L196.958 30.3125H179.302L175.969 26.9797L196.698 6.25L200.031 9.58282V27.2391L208.781 18.4891L233.781 43.4891C235.414 45.1214 236.681 46.988 237.583 49.0891C238.486 51.1891 238.938 53.4198 238.938 55.7812C238.938 58.0031 238.556 60.1385 237.792 62.1875C237.028 64.2365 235.934 66.0766 234.511 67.7078L221.23 54.4266L212.48 63.1766L204.875 55.5734L172.114 88.3328V101.458L137.636 135.938C137.08 136.493 136.507 136.892 135.917 137.136C135.327 137.379 134.684 137.5 133.989 137.5Z" fill="#FF6F00"/>
<path d="M45.1136 184.75H35.1591C34.9773 183.462 34.6061 182.318 34.0455 181.318C33.4849 180.303 32.7652 179.439 31.8864 178.727C31.0076 178.015 29.9924 177.47 28.8409 177.091C27.7045 176.712 26.4697 176.523 25.1364 176.523C22.7273 176.523 20.6288 177.121 18.8409 178.318C17.053 179.5 15.6667 181.227 14.6818 183.5C13.697 185.758 13.2045 188.5 13.2045 191.727C13.2045 195.045 13.697 197.833 14.6818 200.091C15.6818 202.348 17.0758 204.053 18.8636 205.205C20.6515 206.356 22.7197 206.932 25.0682 206.932C26.3864 206.932 27.6061 206.758 28.7273 206.409C29.8636 206.061 30.8712 205.553 31.75 204.886C32.6288 204.205 33.3561 203.379 33.9318 202.409C34.5227 201.439 34.9318 200.333 35.1591 199.091L45.1136 199.136C44.8561 201.273 44.2121 203.333 43.1818 205.318C42.1667 207.288 40.7955 209.053 39.0682 210.614C37.3561 212.159 35.3106 213.386 32.9318 214.295C30.5682 215.189 27.8939 215.636 24.9091 215.636C20.7576 215.636 17.0455 214.697 13.7727 212.818C10.5152 210.939 7.93939 208.22 6.04545 204.659C4.16667 201.098 3.22727 196.788 3.22727 191.727C3.22727 186.652 4.18182 182.333 6.09091 178.773C8 175.212 10.5909 172.5 13.8636 170.636C17.1364 168.758 20.8182 167.818 24.9091 167.818C27.6061 167.818 30.1061 168.197 32.4091 168.955C34.7273 169.712 36.7803 170.818 38.5682 172.273C40.3561 173.712 41.8106 175.477 42.9318 177.568C44.0682 179.659 44.7955 182.053 45.1136 184.75ZM67.7614 215.682C64.2311 215.682 61.178 214.932 58.6023 213.432C56.0417 211.917 54.0644 209.811 52.6705 207.114C51.2765 204.402 50.5795 201.258 50.5795 197.682C50.5795 194.076 51.2765 190.924 52.6705 188.227C54.0644 185.515 56.0417 183.409 58.6023 181.909C61.178 180.394 64.2311 179.636 67.7614 179.636C71.2917 179.636 74.3371 180.394 76.8977 181.909C79.4735 183.409 81.4583 185.515 82.8523 188.227C84.2462 190.924 84.9432 194.076 84.9432 197.682C84.9432 201.258 84.2462 204.402 82.8523 207.114C81.4583 209.811 79.4735 211.917 76.8977 213.432C74.3371 214.932 71.2917 215.682 67.7614 215.682ZM67.8068 208.182C69.4129 208.182 70.7538 207.727 71.8295 206.818C72.9053 205.894 73.7159 204.636 74.2614 203.045C74.822 201.455 75.1023 199.644 75.1023 197.614C75.1023 195.583 74.822 193.773 74.2614 192.182C73.7159 190.591 72.9053 189.333 71.8295 188.409C70.7538 187.485 69.4129 187.023 67.8068 187.023C66.1856 187.023 64.822 187.485 63.7159 188.409C62.625 189.333 61.7992 190.591 61.2386 192.182C60.6932 193.773 60.4205 195.583 60.4205 197.614C60.4205 199.644 60.6932 201.455 61.2386 203.045C61.7992 204.636 62.625 205.894 63.7159 206.818C64.822 207.727 66.1856 208.182 67.8068 208.182ZM100.92 194.818V215H91.2386V180.091H100.466V186.25H100.875C101.648 184.22 102.943 182.614 104.761 181.432C106.58 180.235 108.784 179.636 111.375 179.636C113.799 179.636 115.913 180.167 117.716 181.227C119.519 182.288 120.92 183.803 121.92 185.773C122.92 187.727 123.42 190.061 123.42 192.773V215H113.739V194.5C113.754 192.364 113.208 190.697 112.102 189.5C110.996 188.288 109.473 187.682 107.534 187.682C106.231 187.682 105.08 187.962 104.08 188.523C103.095 189.083 102.322 189.902 101.761 190.977C101.216 192.038 100.936 193.318 100.92 194.818ZM160.097 190.045L151.233 190.591C151.081 189.833 150.756 189.152 150.256 188.545C149.756 187.924 149.097 187.432 148.278 187.068C147.475 186.689 146.513 186.5 145.392 186.5C143.892 186.5 142.627 186.818 141.597 187.455C140.566 188.076 140.051 188.909 140.051 189.955C140.051 190.788 140.384 191.492 141.051 192.068C141.718 192.644 142.862 193.106 144.483 193.455L150.801 194.727C154.195 195.424 156.725 196.545 158.392 198.091C160.059 199.636 160.892 201.667 160.892 204.182C160.892 206.47 160.218 208.477 158.869 210.205C157.536 211.932 155.703 213.28 153.369 214.25C151.051 215.205 148.377 215.682 145.347 215.682C140.725 215.682 137.044 214.72 134.301 212.795C131.574 210.856 129.975 208.22 129.506 204.886L139.028 204.386C139.316 205.795 140.013 206.871 141.119 207.614C142.225 208.341 143.642 208.705 145.369 208.705C147.066 208.705 148.43 208.379 149.46 207.727C150.506 207.061 151.036 206.205 151.051 205.159C151.036 204.28 150.665 203.561 149.938 203C149.21 202.424 148.089 201.985 146.574 201.682L140.528 200.477C137.119 199.795 134.581 198.614 132.915 196.932C131.263 195.25 130.438 193.106 130.438 190.5C130.438 188.258 131.044 186.326 132.256 184.705C133.483 183.083 135.203 181.833 137.415 180.955C139.642 180.076 142.248 179.636 145.233 179.636C149.642 179.636 153.112 180.568 155.642 182.432C158.188 184.295 159.672 186.833 160.097 190.045ZM185.557 180.091V187.364H164.534V180.091H185.557ZM169.307 171.727H178.989V204.273C178.989 205.167 179.125 205.864 179.398 206.364C179.67 206.848 180.049 207.189 180.534 207.386C181.034 207.583 181.61 207.682 182.261 207.682C182.716 207.682 183.17 207.644 183.625 207.568C184.08 207.477 184.428 207.409 184.67 207.364L186.193 214.568C185.708 214.72 185.027 214.894 184.148 215.091C183.269 215.303 182.201 215.432 180.943 215.477C178.61 215.568 176.564 215.258 174.807 214.545C173.064 213.833 171.708 212.727 170.739 211.227C169.769 209.727 169.292 207.833 169.307 205.545V171.727ZM191.864 215V180.091H201.25V186.182H201.614C202.25 184.015 203.318 182.379 204.818 181.273C206.318 180.152 208.045 179.591 210 179.591C210.485 179.591 211.008 179.621 211.568 179.682C212.129 179.742 212.621 179.826 213.045 179.932V188.523C212.591 188.386 211.962 188.265 211.159 188.159C210.356 188.053 209.621 188 208.955 188C207.53 188 206.258 188.311 205.136 188.932C204.03 189.538 203.152 190.386 202.5 191.477C201.864 192.568 201.545 193.826 201.545 195.25V215H191.864ZM240.438 200.136V180.091H250.119V215H240.824V208.659H240.46C239.672 210.705 238.362 212.348 236.528 213.591C234.71 214.833 232.491 215.455 229.869 215.455C227.536 215.455 225.483 214.924 223.71 213.864C221.938 212.803 220.551 211.295 219.551 209.341C218.566 207.386 218.066 205.045 218.051 202.318V180.091H227.733V200.591C227.748 202.652 228.301 204.28 229.392 205.477C230.483 206.674 231.945 207.273 233.778 207.273C234.945 207.273 236.036 207.008 237.051 206.477C238.066 205.932 238.884 205.129 239.506 204.068C240.142 203.008 240.453 201.697 240.438 200.136ZM273.636 215.682C270.061 215.682 266.985 214.924 264.409 213.409C261.848 211.879 259.879 209.758 258.5 207.045C257.136 204.333 256.455 201.212 256.455 197.682C256.455 194.106 257.144 190.97 258.523 188.273C259.917 185.561 261.894 183.447 264.455 181.932C267.015 180.402 270.061 179.636 273.591 179.636C276.636 179.636 279.303 180.189 281.591 181.295C283.879 182.402 285.689 183.955 287.023 185.955C288.356 187.955 289.091 190.303 289.227 193H280.091C279.833 191.258 279.152 189.856 278.045 188.795C276.955 187.72 275.523 187.182 273.75 187.182C272.25 187.182 270.939 187.591 269.818 188.409C268.712 189.212 267.848 190.386 267.227 191.932C266.606 193.477 266.295 195.348 266.295 197.545C266.295 199.773 266.598 201.667 267.205 203.227C267.826 204.788 268.697 205.977 269.818 206.795C270.939 207.614 272.25 208.023 273.75 208.023C274.856 208.023 275.848 207.795 276.727 207.341C277.621 206.886 278.356 206.227 278.932 205.364C279.523 204.485 279.909 203.432 280.091 202.205H289.227C289.076 204.871 288.348 207.22 287.045 209.25C285.758 211.265 283.977 212.841 281.705 213.977C279.432 215.114 276.742 215.682 273.636 215.682ZM313.994 180.091V187.364H292.972V180.091H313.994ZM297.744 171.727H307.426V204.273C307.426 205.167 307.563 205.864 307.835 206.364C308.108 206.848 308.487 207.189 308.972 207.386C309.472 207.583 310.047 207.682 310.699 207.682C311.153 207.682 311.608 207.644 312.062 207.568C312.517 207.477 312.866 207.409 313.108 207.364L314.631 214.568C314.146 214.72 313.464 214.894 312.585 215.091C311.706 215.303 310.638 215.432 309.381 215.477C307.047 215.568 305.002 215.258 303.244 214.545C301.502 213.833 300.146 212.727 299.176 211.227C298.206 209.727 297.729 207.833 297.744 205.545V171.727ZM335.699 215.682C332.169 215.682 329.116 214.932 326.54 213.432C323.979 211.917 322.002 209.811 320.608 207.114C319.214 204.402 318.517 201.258 318.517 197.682C318.517 194.076 319.214 190.924 320.608 188.227C322.002 185.515 323.979 183.409 326.54 181.909C329.116 180.394 332.169 179.636 335.699 179.636C339.229 179.636 342.275 180.394 344.835 181.909C347.411 183.409 349.396 185.515 350.79 188.227C352.184 190.924 352.881 194.076 352.881 197.682C352.881 201.258 352.184 204.402 350.79 207.114C349.396 209.811 347.411 211.917 344.835 213.432C342.275 214.932 339.229 215.682 335.699 215.682ZM335.744 208.182C337.35 208.182 338.691 207.727 339.767 206.818C340.843 205.894 341.653 204.636 342.199 203.045C342.759 201.455 343.04 199.644 343.04 197.614C343.04 195.583 342.759 193.773 342.199 192.182C341.653 190.591 340.843 189.333 339.767 188.409C338.691 187.485 337.35 187.023 335.744 187.023C334.123 187.023 332.759 187.485 331.653 188.409C330.563 189.333 329.737 190.591 329.176 192.182C328.631 193.773 328.358 195.583 328.358 197.614C328.358 199.644 328.631 201.455 329.176 203.045C329.737 204.636 330.563 205.894 331.653 206.818C332.759 207.727 334.123 208.182 335.744 208.182Z" fill="#1E3A5F"/>
</svg>
