<svg width="84" height="84" viewBox="0 0 84 84" fill="none" xmlns="http://www.w3.org/2000/svg">
<path d="M35.8542 60.9583L65.3333 31.4791L60.5417 26.7916L35.8542 51.4791L23.3542 38.9791L18.6667 43.6666L35.8542 60.9583ZM42 83.6666C36.3056 83.6666 30.9236 82.5728 25.8542 80.3853C20.7847 78.1978 16.3576 75.2117 12.5729 71.427C8.78821 67.6423 5.80209 63.2152 3.61459 58.1458C1.42709 53.0763 0.333344 47.6944 0.333344 41.9999C0.333344 36.236 1.42709 30.8194 3.61459 25.7499C5.80209 20.6805 8.78821 16.2708 12.5729 12.5208C16.3576 8.77075 20.7847 5.802 25.8542 3.6145C30.9236 1.427 36.3056 0.333252 42 0.333252C47.7639 0.333252 53.1806 1.427 58.25 3.6145C63.3195 5.802 67.7292 8.77075 71.4792 12.5208C75.2292 16.2708 78.1979 20.6805 80.3854 25.7499C82.5729 30.8194 83.6667 36.236 83.6667 41.9999C83.6667 47.6944 82.5729 53.0763 80.3854 58.1458C78.1979 63.2152 75.2292 67.6423 71.4792 71.427C67.7292 75.2117 63.3195 78.1978 58.25 80.3853C53.1806 82.5728 47.7639 83.6666 42 83.6666Z" fill="#00FD1D"/>
</svg>
