<svg width="30" height="28" viewBox="0 0 30 28" fill="none" xmlns="http://www.w3.org/2000/svg">
<path d="M25.4 27.1333L19.8 21.5999C19.0222 21.8444 18.2389 22.0277 17.45 22.1499C16.6611 22.2722 15.8444 22.3333 15 22.3333C11.6444 22.3333 8.65554 21.4055 6.03331 19.5499C3.41109 17.6944 1.51109 15.2888 0.333313 12.3333C0.79998 11.1555 1.38887 10.0611 2.09998 9.04994C2.81109 8.03883 3.6222 7.13328 4.53331 6.33328L0.866646 2.59994L2.73331 0.733276L27.2666 25.2666L25.4 27.1333ZM15 18.3333C15.2444 18.3333 15.4722 18.3222 15.6833 18.2999C15.8944 18.2777 16.1222 18.2333 16.3666 18.1666L9.16665 10.9666C9.09998 11.2111 9.05554 11.4388 9.03331 11.6499C9.01109 11.8611 8.99998 12.0888 8.99998 12.3333C8.99998 13.9999 9.58331 15.4166 10.75 16.5833C11.9166 17.7499 13.3333 18.3333 15 18.3333ZM24.7333 18.9333L20.5 14.7333C20.6555 14.3555 20.7778 13.9722 20.8666 13.5833C20.9555 13.1944 21 12.7777 21 12.3333C21 10.6666 20.4166 9.24994 19.25 8.08328C18.0833 6.91661 16.6666 6.33328 15 6.33328C14.5555 6.33328 14.1389 6.37772 13.75 6.46661C13.3611 6.5555 12.9778 6.68883 12.6 6.86661L9.19998 3.46661C10.1111 3.08883 11.0444 2.8055 12 2.61661C12.9555 2.42772 13.9555 2.33328 15 2.33328C18.3555 2.33328 21.3444 3.26105 23.9666 5.11661C26.5889 6.97217 28.4889 9.37772 29.6666 12.3333C29.1555 13.6444 28.4833 14.8611 27.65 15.9833C26.8166 17.1055 25.8444 18.0888 24.7333 18.9333ZM18.5666 12.7999L14.5666 8.79994C15.1889 8.68883 15.7611 8.73883 16.2833 8.94994C16.8055 9.16105 17.2555 9.46661 17.6333 9.86661C18.0111 10.2666 18.2833 10.7277 18.45 11.2499C18.6166 11.7722 18.6555 12.2888 18.5666 12.7999Z" fill="#1E3A5F"/>
</svg>
