<svg width="30" height="21" viewBox="0 0 30 21" fill="none" xmlns="http://www.w3.org/2000/svg">
<path d="M15.004 16C16.5791 16 17.9167 15.4487 19.0167 14.346C20.1167 13.2434 20.6667 11.9045 20.6667 10.3294C20.6667 8.75426 20.1153 7.41671 19.0127 6.31671C17.91 5.21671 16.5711 4.66671 14.996 4.66671C13.4209 4.66671 12.0833 5.21804 10.9833 6.32071C9.88333 7.42337 9.33333 8.76226 9.33333 10.3374C9.33333 11.9125 9.88466 13.25 10.9873 14.35C12.09 15.45 13.4289 16 15.004 16ZM14.992 14.0667C13.9529 14.0667 13.0722 13.7029 12.35 12.9754C11.6278 12.248 11.2667 11.3647 11.2667 10.3254C11.2667 9.28626 11.6304 8.4056 12.358 7.68337C13.0853 6.96115 13.9687 6.60004 15.008 6.60004C16.0471 6.60004 16.9278 6.96382 17.65 7.69137C18.3722 8.41871 18.7333 9.30204 18.7333 10.3414C18.7333 11.3805 18.3696 12.2612 17.642 12.9834C16.9147 13.7056 16.0313 14.0667 14.992 14.0667ZM15 20.3334C11.7556 20.3334 8.82222 19.4112 6.2 17.5667C3.57777 15.7223 1.62222 13.3112 0.333328 10.3334C1.62222 7.3556 3.57777 4.94449 6.2 3.10004C8.82222 1.2556 11.7556 0.333374 15 0.333374C18.2444 0.333374 21.1778 1.2556 23.8 3.10004C26.4222 4.94449 28.3778 7.3556 29.6667 10.3334C28.3778 13.3112 26.4222 15.7223 23.8 17.5667C21.1778 19.4112 18.2444 20.3334 15 20.3334Z" fill="#1E3A5F"/>
</svg>
