<svg width="34" height="36" viewBox="0 0 34 36" fill="none" xmlns="http://www.w3.org/2000/svg">
<path d="M28.6945 35.6529C28.5092 35.6529 28.3378 35.6228 28.1803 35.5625C28.0231 35.5022 27.8703 35.398 27.722 35.25L18.1666 25.6946C18.0185 25.5462 17.9144 25.3935 17.8541 25.2362C17.7938 25.0787 17.7637 24.9074 17.7637 24.7221C17.7637 24.5371 17.7938 24.3658 17.8541 24.2083C17.9144 24.0508 18.0185 23.898 18.1666 23.75L21.7083 20.2083C21.8563 20.0603 22.0091 19.9561 22.1666 19.8958C22.3241 19.8355 22.4953 19.8054 22.6803 19.8054C22.8656 19.8054 23.037 19.8355 23.1945 19.8958C23.3517 19.9561 23.5045 20.0603 23.6528 20.2083L33.2083 29.7637C33.3563 29.9121 33.4605 30.0649 33.5208 30.2221C33.581 30.3796 33.6112 30.551 33.6112 30.7362C33.6112 30.9212 33.581 31.0925 33.5208 31.25C33.4605 31.4075 33.3563 31.5603 33.2083 31.7083L29.6666 35.25C29.5185 35.398 29.3658 35.5022 29.2083 35.5625C29.0508 35.6228 28.8795 35.6529 28.6945 35.6529ZM5.26367 35.6667C5.07867 35.6667 4.90047 35.6343 4.72909 35.5696C4.5577 35.5046 4.39797 35.398 4.24992 35.25L0.749919 31.75C0.601863 31.6019 0.495335 31.4422 0.430335 31.2708C0.365613 31.0994 0.333252 30.9212 0.333252 30.7362C0.333252 30.551 0.365613 30.3796 0.430335 30.2221C0.495335 30.0649 0.601863 29.9121 0.749919 29.7637L9.9445 20.5696H13.4862L15.0137 19.0417L7.86117 11.8887H5.48617L0.333252 6.73624L4.65284 2.41666L9.80534 7.56957V9.94457L16.9583 17.0971L22.1803 11.875L19.722 9.41666L22.0553 7.08332H17.347L16.4583 6.19457L21.9862 0.666656L22.8749 1.55541V6.26374L25.2083 3.93041L31.8749 10.5971C32.3102 11.0324 32.6481 11.5301 32.8887 12.0904C33.1295 12.6504 33.2499 13.2453 33.2499 13.875C33.2499 14.4675 33.1481 15.0369 32.9445 15.5833C32.7406 16.1297 32.4489 16.6204 32.0695 17.0554L28.5278 13.5137L26.1945 15.8471L24.1666 13.8196L15.4303 22.5554V26.0554L6.23617 35.25C6.08784 35.398 5.93506 35.5046 5.77784 35.5696C5.62034 35.6343 5.44895 35.6667 5.26367 35.6667Z" fill="#FF6F00"/>
</svg>
