<svg width="168" height="168" viewBox="0 0 168 168" fill="none" xmlns="http://www.w3.org/2000/svg">
<path d="M32.7501 126.5C39.8334 121.083 47.7501 116.812 56.5001 113.687C65.2501 110.562 74.4167 109 84.0001 109C93.5834 109 102.75 110.562 111.5 113.687C120.25 116.812 128.167 121.083 135.25 126.5C140.111 120.806 143.896 114.347 146.604 107.125C149.313 99.9027 150.667 92.1944 150.667 84C150.667 65.5277 144.174 49.7986 131.188 36.8125C118.201 23.8263 102.472 17.3333 84.0001 17.3333C65.5279 17.3333 49.7987 23.8263 36.8126 36.8125C23.8265 49.7986 17.3334 65.5277 17.3334 84C17.3334 92.1944 18.6876 99.9027 21.3959 107.125C24.1042 114.347 27.889 120.806 32.7501 126.5ZM84.0001 92.3333C75.8056 92.3333 68.8959 89.5208 63.2709 83.8958C57.6459 78.2708 54.8334 71.3611 54.8334 63.1666C54.8334 54.9722 57.6459 48.0625 63.2709 42.4375C68.8959 36.8125 75.8056 34 84.0001 34C92.1945 34 99.1042 36.8125 104.729 42.4375C110.354 48.0625 113.167 54.9722 113.167 63.1666C113.167 71.3611 110.354 78.2708 104.729 83.8958C99.1042 89.5208 92.1945 92.3333 84.0001 92.3333ZM84.0001 167.333C72.4723 167.333 61.639 165.146 51.5001 160.771C41.3612 156.396 32.5417 150.458 25.0417 142.958C17.5417 135.458 11.6042 126.639 7.22925 116.5C2.85425 106.361 0.666748 95.5277 0.666748 84C0.666748 72.4722 2.85425 61.6388 7.22925 51.5C11.6042 41.3611 17.5417 32.5416 25.0417 25.0416C32.5417 17.5416 41.3612 11.6041 51.5001 7.22913C61.639 2.85413 72.4723 0.666626 84.0001 0.666626C95.5278 0.666626 106.361 2.85413 116.5 7.22913C126.639 11.6041 135.458 17.5416 142.958 25.0416C150.458 32.5416 156.396 41.3611 160.771 51.5C165.146 61.6388 167.333 72.4722 167.333 84C167.333 95.5277 165.146 106.361 160.771 116.5C156.396 126.639 150.458 135.458 142.958 142.958C135.458 150.458 126.639 156.396 116.5 160.771C106.361 165.146 95.5278 167.333 84.0001 167.333Z" fill="#1E3A5F"/>
</svg>
