<svg width="40" height="20" viewBox="0 0 40 20" fill="none" xmlns="http://www.w3.org/2000/svg">
<path d="M16.625 10C15.9769 10 15.4446 9.75458 15.0279 9.26375C14.6113 8.77319 14.4631 8.21306 14.5833 7.58333L15.1667 4.08333C15.3889 2.88889 15.9514 1.90972 16.8542 1.14583C17.7569 0.381944 18.8056 0 20 0C21.2222 0 22.2847 0.381944 23.1875 1.14583C24.0903 1.90972 24.6528 2.88889 24.875 4.08333L25.4583 7.58333C25.5786 8.21306 25.4304 8.77319 25.0138 9.26375C24.5971 9.75458 24.0647 10 23.4167 10H16.625ZM5.58333 12.5167C5 12.5425 4.49444 12.4276 4.06667 12.1721C3.63889 11.9165 3.36014 11.5204 3.23042 10.9837C3.17875 10.7537 3.17139 10.5231 3.20833 10.2917C3.24528 10.0603 3.31014 9.83958 3.40292 9.62958C3.40292 9.65597 3.38903 9.60347 3.36125 9.47208C3.34264 9.43514 3.21486 9.12903 2.97792 8.55375C2.91847 8.24014 2.94903 7.95375 3.06958 7.69458C3.18986 7.43514 3.36111 7.19431 3.58333 6.97208L3.66667 6.88875C3.72222 6.3982 3.92153 5.99083 4.26458 5.66667C4.60764 5.3425 5.03333 5.18042 5.54167 5.18042C5.58806 5.18042 5.82569 5.22681 6.25458 5.31958L6.375 5.27792C6.51389 5.15736 6.68208 5.06236 6.87958 4.99292C7.07708 4.92347 7.28694 4.88875 7.50917 4.88875C7.78083 4.88875 8.03014 4.93736 8.25708 5.03458C8.48375 5.13181 8.66014 5.26958 8.78625 5.44792C8.81153 5.44792 8.83042 5.45431 8.84292 5.46708C8.85542 5.47986 8.87431 5.48625 8.89958 5.48625C9.25236 5.51153 9.56097 5.61972 9.82542 5.81083C10.0899 6.00167 10.2915 6.26222 10.4304 6.5925C10.486 6.77028 10.5068 6.94181 10.4929 7.10708C10.479 7.27208 10.4443 7.43083 10.3888 7.58333C10.3888 7.62972 10.4026 7.67597 10.4304 7.72208C10.6076 7.90097 10.7469 8.09889 10.8483 8.31583C10.9494 8.53278 11 8.75625 11 8.98625C11 9.06014 10.926 9.3257 10.7779 9.78292C10.7501 9.83681 10.7501 9.8907 10.7779 9.94458C10.7963 10.0185 10.8147 10.2221 10.8333 10.5554C10.8333 11.0832 10.6114 11.5421 10.1675 11.9321C9.72361 12.3218 9.18472 12.5167 8.55083 12.5167H5.58333ZM33.5529 12.5C32.7121 12.5 31.9931 12.1996 31.3958 11.5988C30.7986 10.9982 30.5 10.2761 30.5 9.4325C30.5 9.12556 30.5486 8.83556 30.6458 8.5625C30.7431 8.28944 30.8657 8.0325 31.0138 7.79167L29.9304 6.83333C29.6899 6.61111 29.646 6.35181 29.7987 6.05542C29.9515 5.75931 30.181 5.61125 30.4871 5.61125H33.5492C34.3911 5.61125 35.1119 5.91139 35.7117 6.51167C36.3114 7.11222 36.6113 7.83403 36.6113 8.67708V9.44375C36.6113 10.2868 36.3118 11.0069 35.7129 11.6042C35.114 12.2014 34.394 12.5 33.5529 12.5ZM0 20V17.6529C0 16.5146 0.594861 15.6026 1.78458 14.9171C2.97458 14.2315 4.51306 13.8888 6.4 13.8888C6.74556 13.8888 7.07778 13.8957 7.39667 13.9096C7.71556 13.9235 8.02778 13.9557 8.33333 14.0063C8.05556 14.5113 7.84722 15.0329 7.70833 15.5712C7.56944 16.1096 7.5 16.6831 7.5 17.2917V20H0ZM10 20V17.2917C10 15.4861 10.9236 14.0278 12.7708 12.9167C14.6181 11.8056 17.0278 11.25 20 11.25C23 11.25 25.4167 11.8056 27.25 12.9167C29.0833 14.0278 30 15.4861 30 17.2917V20H10ZM33.6113 13.8888C35.5279 13.8888 37.0718 14.2315 38.2429 14.9171C39.4143 15.6026 40 16.5146 40 17.6529V20H32.5V17.2917C32.5 16.6831 32.4375 16.1096 32.3125 15.5712C32.1875 15.0329 31.9907 14.5113 31.7221 14.0063C32.0276 13.9557 32.3371 13.9235 32.6504 13.9096C32.964 13.8957 33.2843 13.8888 33.6113 13.8888Z" fill="#DFE9F5"/>
</svg>
