<svg width="34" height="34" viewBox="0 0 34 34" fill="none" xmlns="http://www.w3.org/2000/svg">
<path d="M6.24998 26.3749C7.99998 25.1527 9.73609 24.2152 11.4583 23.5624C13.1805 22.9096 15.0278 22.5833 17 22.5833C18.9722 22.5833 20.8264 22.9096 22.5625 23.5624C24.2986 24.2152 26.0416 25.1527 27.7916 26.3749C29.0139 24.8749 29.8819 23.361 30.3958 21.8333C30.9097 20.3055 31.1666 18.6944 31.1666 16.9999C31.1666 12.9721 29.8125 9.60408 27.1041 6.89575C24.3958 4.18742 21.0278 2.83325 17 2.83325C12.9722 2.83325 9.60415 4.18742 6.89581 6.89575C4.18748 9.60408 2.83331 12.9721 2.83331 16.9999C2.83331 18.6944 3.0972 20.3055 3.62498 21.8333C4.15276 23.361 5.02776 24.8749 6.24998 26.3749ZM16.9921 18.2499C15.3862 18.2499 14.0347 17.6987 12.9375 16.5962C11.8403 15.4939 11.2916 14.1398 11.2916 12.5337C11.2916 10.9278 11.8429 9.57631 12.9454 8.47908C14.0476 7.38186 15.4018 6.83325 17.0079 6.83325C18.6137 6.83325 19.9653 7.3845 21.0625 8.487C22.1597 9.58922 22.7083 10.9434 22.7083 12.5495C22.7083 14.1553 22.1571 15.5069 21.0546 16.6041C19.9523 17.7013 18.5982 18.2499 16.9921 18.2499ZM17.0196 33.6666C14.7287 33.6666 12.5694 33.2291 10.5416 32.3541C8.51387 31.4791 6.74303 30.2846 5.22915 28.7708C3.71526 27.2569 2.52081 25.4892 1.64581 23.4678C0.770813 21.4467 0.333313 19.287 0.333313 16.9887C0.333313 14.6906 0.770813 12.5346 1.64581 10.5208C2.52081 8.50686 3.71526 6.74297 5.22915 5.22908C6.74303 3.7152 8.51067 2.52075 10.5321 1.64575C12.5532 0.770752 14.7129 0.333252 17.0112 0.333252C19.3093 0.333252 21.4653 0.770752 23.4791 1.64575C25.493 2.52075 27.2569 3.7152 28.7708 5.22908C30.2847 6.74297 31.4791 8.50728 32.3541 10.522C33.2291 12.5367 33.6666 14.6895 33.6666 16.9803C33.6666 19.2712 33.2291 21.4305 32.3541 23.4583C31.4791 25.486 30.2847 27.2569 28.7708 28.7708C27.2569 30.2846 25.4926 31.4791 23.4779 32.3541C21.4632 33.2291 19.3104 33.6666 17.0196 33.6666ZM17 31.1666C18.5278 31.1666 20.0208 30.9444 21.4791 30.4999C22.9375 30.0555 24.375 29.2777 25.7916 28.1666C24.375 27.1666 22.9305 26.4027 21.4583 25.8749C19.9861 25.3471 18.5 25.0833 17 25.0833C15.5 25.0833 14.0139 25.3471 12.5416 25.8749C11.0694 26.4027 9.62498 27.1666 8.20831 28.1666C9.62498 29.2777 11.0625 30.0555 12.5208 30.4999C13.9791 30.9444 15.4722 31.1666 17 31.1666ZM17 15.7499C17.9444 15.7499 18.7153 15.4513 19.3125 14.8541C19.9097 14.2569 20.2083 13.486 20.2083 12.5416C20.2083 11.5971 19.9097 10.8263 19.3125 10.2291C18.7153 9.63186 17.9444 9.33325 17 9.33325C16.0555 9.33325 15.2847 9.63186 14.6875 10.2291C14.0903 10.8263 13.7916 11.5971 13.7916 12.5416C13.7916 13.486 14.0903 14.2569 14.6875 14.8541C15.2847 15.4513 16.0555 15.7499 17 15.7499Z" fill="#DFE9F5"/>
</svg>
